<svg width="200" height="200" viewBox="0 0 200 200" fill="none" xmlns="http://www.w3.org/2000/svg">
<path d="M182.003 91.8437C181.197 98.3028 176.826 110.277 174.511 115.061C168.279 127.892 159.959 137.752 143.935 137.752C135.373 137.752 128.328 135.014 124.21 129.774C118.18 135.055 110.713 137.825 102.677 137.825C96.4788 137.825 91.0088 136.038 86.8384 132.73C82.2293 135.975 76.0176 137.784 69.1265 137.784C63.375 137.784 58.1998 136.207 54.1461 133.288C49.6659 136.259 43.7933 137.738 36.8968 137.572C25.4248 137.303 17.5032 130.027 17.2756 119.464C16.9736 105.428 28.7943 79.7408 34.3673 70.8427C38.5324 63.9959 44.8987 60.3167 52.6914 60.3167C61.1534 60.3167 64.2227 62.7354 65.7289 65.8095C72.2605 60.2598 80.9166 59.9441 87.0756 59.9441C93.8816 59.9441 98.1468 61.748 101.777 64.6418C106.795 61.6336 112.542 60.0735 119.394 60.0735C128.157 60.0735 134.659 62.1093 139.196 66.5955C144.487 62.1878 151.122 60.1819 158.538 60.1819C168.35 60.1819 174.804 63.7221 178.598 68.9932C183.937 76.4343 182.986 83.9269 182.003 91.8437ZM11.2227 188.797H188.821V11.2043H11.2227V188.797Z" fill="#0D1B1E"/>
<path d="M12.475 12.4804H187.523V187.526H12.475V12.4804ZM10 190.001H189.999V10H10V190.001Z" fill="#0D1B1E"/>
<path d="M181.921 59.9907C181.354 59.9903 180.793 60.1018 180.269 60.3188C179.745 60.5359 179.269 60.8543 178.869 61.2557C178.469 61.6571 178.151 62.1336 177.936 62.658C177.72 63.1823 177.61 63.744 177.612 64.311C177.611 64.877 177.721 65.4377 177.937 65.9608C178.154 66.484 178.471 66.9592 178.872 67.3592C179.272 67.7593 179.748 68.0763 180.271 68.292C180.794 68.5077 181.355 68.6179 181.921 68.6163C184.314 68.6163 186.241 66.6991 186.241 64.311C186.243 63.7433 186.132 63.181 185.915 62.6563C185.698 62.1316 185.38 61.6549 184.979 61.2535C184.577 60.8521 184.1 60.5339 183.576 60.3172C183.051 60.1005 182.489 59.9895 181.921 59.9907ZM181.921 60.8433C183.838 60.8433 185.399 62.3932 185.399 64.311C185.399 66.218 183.839 67.7781 181.921 67.7781C180.009 67.7781 178.469 66.218 178.469 64.311C178.469 62.3938 180.009 60.8433 181.921 60.8433ZM184.117 66.5583L183.6 65.6596C183.151 64.8694 183.022 64.7502 182.644 64.6106V64.5902C183.399 64.5027 183.85 64.0114 183.85 63.3392C183.85 62.6317 183.399 62.0942 182.439 62.0942H180.217V66.5589H181.136V64.7298H181.301C181.694 64.7298 181.855 64.7711 182.036 64.9521C182.212 65.133 182.485 65.5098 182.646 65.8304L183.003 66.5589L184.117 66.5583ZM181.135 64.0114V62.7916H181.962C182.573 62.7916 182.892 63.0037 182.892 63.3967C182.892 63.7113 182.691 64.0108 182.071 64.0108L181.135 64.0114ZM159.637 84.6709C159.451 89.2704 152.713 107.662 150.32 111.718C149.283 113.48 148.114 114.932 146.006 114.927C144.167 114.927 143.35 113.624 143.298 112.136C143.162 107.986 150.78 87.1824 153.385 83.7974C154.542 82.0138 155.834 81.7257 157.312 81.746C159.474 81.7724 159.689 83.3331 159.637 84.6709ZM171.916 92.1797C170.386 99.8017 166.945 108.818 163.203 115.536C157.105 126.502 149.7 128.036 143.236 127.959C136.777 127.881 129.48 125.494 129.428 115.52C129.388 108.358 132.477 98.25 135.103 91.6249C139.671 79.6102 144.342 69.8187 159.111 69.9943C176.33 70.1968 173.261 85.5133 171.916 92.1797ZM117.239 81.498C114.743 81.498 113.115 83.0743 111.901 84.7794C109.235 88.5257 103.447 103.547 102.548 109.718C101.938 113.946 103.759 114.803 105.757 114.803C108.956 114.803 112.542 111.418 113.766 105.832C113.766 105.832 107.673 105.682 109.354 100.28C110.982 95.0357 114.083 93.904 119.213 93.6919C129.326 93.2791 128.324 100.745 127.517 104.725C124.891 117.654 115.689 128.041 102.671 128.041C93.7592 128.041 88.2305 123.106 88.2305 114.022C88.2305 107.551 91.4424 97.3873 93.9863 91.4404C99.4047 78.7798 105.089 69.9176 119.569 69.9176C128.255 69.9176 135.108 73.0384 134.1 81.1775C133.366 87.1513 130.379 90.6598 124.949 91.0833C123.429 91.2014 117.214 91.042 119.275 85.1616C119.992 83.1102 120.292 81.498 117.239 81.498ZM71.9374 103.885C71.3383 105.501 70.2119 108.876 69.3025 112.458C72.2555 111.724 74.4723 111.202 78.2707 111.3C82.6012 111.403 85.3685 113.202 85.3685 116.778C85.3685 125.454 75.7802 128.002 69.1269 128.002C61.8201 128.002 55.4071 123.841 55.4071 115.857C55.4071 106.488 60.4816 92.293 65.2434 82.8364C71.0956 71.2195 77.0749 69.6743 87.3684 69.6743C91.893 69.6743 97.1041 71.6077 97.1041 75.8758C97.1041 81.7981 92.0889 84.0556 87.1126 84.3456C84.9911 84.4642 81.7229 84.5829 79.7697 84.4439C79.7697 84.4439 78.1132 86.971 76.3511 91.4614C85.5626 90.1643 89.4695 92.2576 87.9136 97.585C85.8125 104.778 79.5726 105.254 71.9374 103.885ZM42.6014 112.208C51.611 110.643 53.8775 113.904 53.5905 116.911C52.7458 125.944 44.4593 127.959 37.2663 127.794C32.0497 127.67 27.3598 125.284 27.2286 119.226C27.0015 108.633 37.8067 84.1233 42.8962 76.0005C45.2424 72.1409 48.105 70.2387 52.6703 70.2387C56.9929 70.2387 58.0678 72.4555 58.003 75.1167C57.8353 82.2109 46.3633 103.781 42.6014 112.208ZM158.45 64.6159C149.149 64.6159 142.72 68.3053 138.369 73.4524C137.635 71.9132 137.071 71.2362 136.285 70.3465C132.725 66.321 126.994 64.4398 119.31 64.4398C111.802 64.4398 105.543 66.786 101.198 70.4807C98.9404 66.8117 93.5633 64.3775 87.0754 64.3775C78.5984 64.3775 69.366 65.5817 63.884 74.408C63.757 71.229 63.4652 69.5503 61.6775 67.6541C59.5068 65.3595 55.993 64.7549 52.5696 64.7549C46.3298 64.7549 41.6375 67.4785 38.2602 73.0294C33.3618 80.8575 21.4812 106.613 21.7526 119.082C21.9204 127.143 27.3286 132.947 37.0021 133.174C44.5624 133.355 50.4895 131.334 54.2615 127.531C57.6442 131.2 62.8086 133.36 68.9843 133.36C75.8617 133.36 82.7893 131.299 86.8795 126.782C90.3262 131.009 95.7441 133.469 102.712 133.436C111.828 133.396 119.827 129.076 125.058 122.45C127.92 130.258 135.196 133.359 143.144 133.359C160.558 133.359 168.201 121.391 174.573 102.457C176.009 98.1883 177.923 91.0731 178.242 85.0951C178.769 75.1425 174.557 64.6159 158.45 64.6159Z" fill="#0D1B1E"/>
</svg>
